name D:\school\WTK\thesis\model\3dpredictsim\Results\batch_windlass\Pog_s1_tmt_bCst_d00_k500_WL10_ig24_pas.mot
datacolumns 128
datarows 4
range 0.00000000 0.03188220
endheader
time	pelvis_tilt	pelvis_list	pelvis_rotation	pelvis_tx	pelvis_ty	pelvis_tz	hip_flexion_l	hip_adduction_l	hip_rotation_l	hip_flexion_r	hip_adduction_r	hip_rotation_r	knee_angle_l	knee_angle_r	ankle_angle_l	ankle_angle_r	subtalar_angle_l	subtalar_angle_r	tmt_angle_l	tmt_angle_r	mtp_angle_l	mtp_angle_r	lumbar_extension	lumbar_bending	lumbar_rotation	arm_flex_l	arm_add_l	arm_rot_l	arm_flex_r	arm_add_r	arm_rot_r	elbow_flex_l	elbow_flex_r	pro_sup_l	pro_sup_r	glut_med1_l/activation	glut_med2_l/activation	glut_med3_l/activation	glut_min1_l/activation	glut_min2_l/activation	glut_min3_l/activation	semimem_l/activation	semiten_l/activation	bifemlh_l/activation	bifemsh_l/activation	sar_l/activation	add_long_l/activation	add_brev_l/activation	add_mag1_l/activation	add_mag2_l/activation	add_mag3_l/activation	tfl_l/activation	pect_l/activation	grac_l/activation	glut_max1_l/activation	glut_max2_l/activation	glut_max3_l/activation	iliacus_l/activation	psoas_l/activation	quad_fem_l/activation	gem_l/activation	peri_l/activation	rect_fem_l/activation	vas_med_l/activation	vas_int_l/activation	vas_lat_l/activation	med_gas_l/activation	lat_gas_l/activation	soleus_l/activation	tib_post_l/activation	flex_dig_l/activation	flex_hal_l/activation	tib_ant_l/activation	per_brev_l/activation	per_long_l/activation	per_tert_l/activation	ext_dig_l/activation	ext_hal_l/activation	ercspn_l/activation	intobl_l/activation	extobl_l/activation	glut_med1_r/activation	glut_med2_r/activation	glut_med3_r/activation	glut_min1_r/activation	glut_min2_r/activation	glut_min3_r/activation	semimem_r/activation	semiten_r/activation	bifemlh_r/activation	bifemsh_r/activation	sar_r/activation	add_long_r/activation	add_brev_r/activation	add_mag1_r/activation	add_mag2_r/activation	add_mag3_r/activation	tfl_r/activation	pect_r/activation	grac_r/activation	glut_max1_r/activation	glut_max2_r/activation	glut_max3_r/activation	iliacus_r/activation	psoas_r/activation	quad_fem_r/activation	gem_r/activation	peri_r/activation	rect_fem_r/activation	vas_med_r/activation	vas_int_r/activation	vas_lat_r/activation	med_gas_r/activation	lat_gas_r/activation	soleus_r/activation	tib_post_r/activation	flex_dig_r/activation	flex_hal_r/activation	tib_ant_r/activation	per_brev_r/activation	per_long_r/activation	per_tert_r/activation	ext_dig_r/activation	ext_hal_r/activation	ercspn_r/activation	intobl_r/activation	extobl_r/activation	
          0.00000000	         -2.91921888	         -1.44290702	          6.63420121	          0.00000000	          0.85468500	         -0.00277844	        -18.93684227	         -1.73771590	          9.53678571	         32.09586889	          2.68161609	         -1.42191618	         -9.18493661	        -21.11031567	         -3.31009574	         -5.53355123	         10.72160773	         -6.41321018	         -0.22050690	          0.06710024	         27.04467503	          0.00853468	         -0.66221102	         -0.55910893	         -1.75392760	          5.97072234	        -13.46903222	         16.52160656	         -8.83843178	        -13.77103832	         13.88926877	         32.66035719	         14.72748673	         86.51662706	         86.51662706	          0.31196047	          0.08529177	          0.05189114	          0.34618638	          0.20673612	          0.09386556	          0.05001330	          0.05000132	          0.05000111	          0.07473549	          0.10706787	          0.06680146	          0.05000122	          0.05000235	          0.05000612	          0.05000656	          0.30053946	          0.05000794	          0.05000477	          0.05004222	          0.05002807	          0.05001264	          0.35889917	          0.54962213	          0.05000310	          0.05001932	          0.05000173	          0.20305133	          0.05002929	          0.06086922	          0.11311545	          0.31301560	          0.40303458	          0.27252432	          0.21107102	          0.23192555	          0.29736003	          0.05000004	          0.10003705	          0.18536540	          0.05000021	          0.05000007	          0.05000027	          0.05000007	          0.05000140	          0.05000014	          0.05000838	          0.05000625	          0.05001872	          0.05000347	          0.05000360	          0.05000859	          0.05470407	          0.05886102	          0.17996578	          0.05885963	          0.05000295	          0.11298508	          0.14463515	          0.12007327	          0.09806800	          0.10331444	          0.05003256	          0.05004330	          0.06927416	          0.05885145	          0.05886457	          0.08635958	          0.06927670	          0.06928696	          0.19259104	          0.05001076	          0.05000182	          0.05000108	          0.10816301	          0.11750326	          0.09584797	          0.08155197	          0.08155018	          0.05143090	          0.05000031	          0.05885596	          0.05001067	          0.28268575	          0.23753672	          0.13302400	          0.35122106	          0.61227554	          0.11069838	          0.05163835	          0.12665259	          0.13037519	
          0.01062740	         -2.90537167	         -1.59675826	          6.93324373	          0.01636296	          0.85356146	         -0.00258154	        -18.62120658	         -2.10503719	          9.29322147	         31.60994547	          3.15594710	         -1.15748747	        -11.29333523	        -20.95106743	         -4.20164430	         -5.97583868	         11.89489678	         -7.38117598	         -0.89752474	          0.07144126	         28.13878631	          0.06920553	         -0.44844736	         -0.27798440	         -1.82214524	          5.71664685	        -13.49728303	         16.81342874	         -9.90591110	        -13.76280213	         13.77926877	         33.67036522	         14.68070742	         86.51662706	         86.51662706	          0.30231842	          0.07245786	          0.05000013	          0.29409659	          0.17562847	          0.07974161	          0.05000518	          0.05000063	          0.05000053	          0.06349001	          0.09095822	          0.11781477	          0.09702947	          0.05000350	          0.05000388	          0.05000126	          0.25531765	          0.11597903	          0.05000245	          0.05000271	          0.05000151	          0.05000102	          0.30489529	          0.48453919	          0.05000023	          0.05000090	          0.05000052	          0.17249800	          0.12526630	          0.05173541	          0.10413404	          0.26591574	          0.34238947	          0.23151723	          0.17931099	          0.19702783	          0.25261615	          0.05000059	          0.08498515	          0.15747711	          0.05000210	          0.08771774	          0.05000163	          0.05000007	          0.05000022	          0.06414239	          0.06700581	          0.05000259	          0.05000082	          0.05885616	          0.05885452	          0.05000803	          0.05000184	          0.05000441	          0.16185473	          0.05000326	          0.05884913	          0.09599827	          0.18440262	          0.10200686	          0.08331273	          0.13144815	          0.05000071	          0.05886456	          0.05885128	          0.05000148	          0.05000790	          0.14978106	          0.05885629	          0.05886173	          0.16361411	          0.06927924	          0.08037837	          0.05710240	          0.20962696	          0.20729689	          0.17574265	          0.06928076	          0.06927929	          0.05885620	          0.05000014	          0.05000066	          0.05000161	          0.48241524	          0.20179434	          0.11300774	          0.37133435	          0.70281029	          0.34553654	          0.05000020	          0.10759509	          0.11075749	
          0.02125480	         -2.88643212	         -1.75821848	          7.20286450	          0.03298280	          0.85228803	         -0.00237623	        -18.20381604	         -2.46020614	          9.03299471	         31.01715361	          3.64373056	         -0.80692960	        -13.58832681	        -21.38143337	         -5.17456374	         -6.29830314	         12.99487028	         -8.40217707	         -1.57590239	          0.05481382	         28.91099767	          0.15285107	         -0.21587183	          0.01902263	         -1.88263399	          5.39025952	        -13.53792757	         17.05063855	        -10.97255873	        -13.75599005	         13.69864875	         34.66471260	         14.63292548	         86.51662706	         86.51662706	          0.25682839	          0.06155511	          0.05000348	          0.24984391	          0.14920161	          0.06774293	          0.05000942	          0.05000058	          0.05000101	          0.05393667	          0.07727219	          0.21182062	          0.27655559	          0.17415404	          0.05886047	          0.12725891	          0.21690018	          0.09853089	          0.05000286	          0.05003375	          0.05003325	          0.05015657	          0.25901739	          0.42788358	          0.05000782	          0.05004774	          0.05000175	          0.14654205	          0.10642580	          0.13033406	          0.08847278	          0.22590306	          0.29086971	          0.19668054	          0.15232991	          0.16738116	          0.21460491	          0.13220014	          0.07219804	          0.13859904	          0.05000057	          0.19120143	          0.05000601	          0.07201872	          0.05885625	          0.05449176	          0.21928835	          0.05000283	          0.14794137	          0.05000053	          0.05000056	          0.05000097	          0.05000016	          0.05000032	          0.13750038	          0.05000015	          0.05000106	          0.08155383	          0.15665789	          0.31386232	          0.27449312	          0.15377213	          0.05000586	          0.05001586	          0.05000151	          0.14062571	          0.13924722	          0.14431691	          0.05000043	          0.05000519	          0.27694842	          0.05885704	          0.06828404	          0.05885643	          0.31430277	          0.30053233	          0.25670941	          0.05885604	          0.05885483	          0.05000007	          0.14112102	          0.05885811	          0.05001484	          0.45826180	          0.17143016	          0.09600338	          0.36151637	          0.60203408	          0.29354358	          0.05000005	          0.09140513	          0.09409168	
          0.03188220	         -2.86439395	         -1.92091734	          7.43909968	          0.04971193	          0.85093693	         -0.00217714	        -17.65605719	         -2.78746066	          8.77241883	         30.20701214	          4.12308576	         -0.40764573	        -16.10368460	        -21.98822930	         -6.19397768	         -6.00406375	         13.99844011	         -9.45274930	         -2.14746017	          0.06023424	         29.03647846	          0.06596564	          0.02454714	          0.32260425	         -1.93223252	          5.01348484	        -13.58414984	         17.23179849	        -11.99979086	        -13.75162802	         13.68866553	         35.63068092	         14.55158317	         86.51662706	         86.51662706	          0.21818987	          0.05229290	          0.05000007	          0.21225088	          0.12675127	          0.05754971	          0.05003239	          0.05000422	          0.05000162	          0.05000123	          0.06564619	          0.19165775	          0.34172125	          0.14794943	          0.05000765	          0.10811120	          0.18426728	          0.08371399	          0.05000205	          0.05000196	          0.05000122	          0.05000067	          0.22004280	          0.37395174	          0.05000015	          0.05000059	          0.05000018	          0.12449170	          0.09041186	          0.11072261	          0.07516024	          0.19191114	          0.24710221	          0.16708576	          0.12940877	          0.14219561	          0.18231346	          0.19772934	          0.11471145	          0.12280855	          0.25066083	          0.26761540	          0.11829010	          0.10070512	          0.05000011	          0.05000030	          0.32334376	          0.33435417	          0.49518812	          0.20218713	          0.12902355	          0.26235233	          0.07402957	          0.10183503	          0.11681236	          0.06928087	          0.05000333	          0.06928290	          0.14346484	          0.26663586	          0.23319218	          0.17732316	          0.05000047	          0.05888224	          0.12615905	          0.27897968	          0.22616603	          0.18517169	          0.05884037	          0.05000085	          0.23527612	          0.05000176	          0.22745956	          0.05000027	          0.29567069	          0.31517678	          0.27134519	          0.05000009	          0.05000016	          0.05000004	          0.15811491	          0.05000224	          0.05000060	          0.52185602	          0.14563490	          0.08155765	          0.30711969	          0.59565474	          0.37269193	          0.05779991	          0.07765145	          0.07993360	
